<?xml version="1.0" encoding="UTF-8"?>
<svg width="200" height="200" viewBox="0 0 200 200" xmlns="http://www.w3.org/2000/svg">
  <!-- Julia Child Caricature -->
  
  <!-- Background -->
  <circle cx="100" cy="100" r="95" fill="#f5f0e6"/>
  
  <!-- Hair -->
  <path d="M55 70 C55 40, 145 40, 145 70 L145 110 C145 130, 125 150, 100 150 C75 150, 55 130, 55 110 Z" fill="#e6e6e6"/>
  
  <!-- Face -->
  <ellipse cx="100" cy="95" rx="50" ry="60" fill="#ffdbac"/>
  
  <!-- Glasses -->
  <circle cx="80" cy="85" r="15" fill="none" stroke="#333" stroke-width="3"/>
  <circle cx="120" cy="85" r="15" fill="none" stroke="#333" stroke-width="3"/>
  <line x1="95" y1="85" x2="105" y2="85" stroke="#333" stroke-width="3"/>
  <line x1="65" y1="85" x2="55" y2="80" stroke="#333" stroke-width="3"/>
  <line x1="135" y1="85" x2="145" y2="80" stroke="#333" stroke-width="3"/>
  
  <!-- Eyes -->
  <circle cx="80" cy="85" r="5" fill="#333"/>
  <circle cx="120" cy="85" r="5" fill="#333"/>
  
  <!-- Eyebrows -->
  <path d="M70 75 Q80 70 90 75" fill="none" stroke="#333" stroke-width="2"/>
  <path d="M110 75 Q120 70 130 75" fill="none" stroke="#333" stroke-width="2"/>
  
  <!-- Nose -->
  <path d="M100 90 Q105 105 100 110" fill="none" stroke="#333" stroke-width="2"/>
  
  <!-- Mouth -->
  <path d="M80 120 Q100 130 120 120" fill="none" stroke="#333" stroke-width="2"/>
  
  <!-- Chef Hat -->
  <path d="M60 50 Q100 20 140 50 L140 60 L60 60 Z" fill="white" stroke="#333" stroke-width="2"/>
  <rect x="60" y="60" width="80" height="10" fill="white" stroke="#333" stroke-width="2"/>
  
  <!-- Pearl Necklace -->
  <circle cx="85" cy="135" r="3" fill="white" stroke="#333"/>
  <circle cx="93" cy="137" r="3" fill="white" stroke="#333"/>
  <circle cx="100" cy="138" r="3" fill="white" stroke="#333"/>
  <circle cx="107" cy="137" r="3" fill="white" stroke="#333"/>
  <circle cx="115" cy="135" r="3" fill="white" stroke="#333"/>
  
  <!-- Name -->
  <text x="100" y="180" text-anchor="middle" font-family="Arial" font-size="14" font-weight="bold">Julia Child</text>
</svg>
