<?xml version="1.0" encoding="UTF-8"?>
<svg width="200" height="200" viewBox="0 0 200 200" xmlns="http://www.w3.org/2000/svg">
  <!-- Placeholder Chef Caricature -->
  
  <!-- Background -->
  <circle cx="100" cy="100" r="95" fill="#f5f0e6"/>
  
  <!-- Chef Hat -->
  <path d="M60 50 Q100 20 140 50 L140 60 L60 60 Z" fill="white" stroke="#333" stroke-width="2"/>
  <rect x="60" y="60" width="80" height="10" fill="white" stroke="#333" stroke-width="2"/>
  
  <!-- Face Silhouette -->
  <ellipse cx="100" cy="100" rx="45" ry="55" fill="#dddddd"/>
  
  <!-- Question Mark -->
  <text x="100" y="110" text-anchor="middle" font-family="Arial" font-size="60" font-weight="bold" fill="#888">?</text>
  
  <!-- Chef Coat -->
  <path d="M60 140 L60 180 L140 180 L140 140 Q120 150 100 150 Q80 150 60 140" fill="white" stroke="#333" stroke-width="2"/>
  
  <!-- Chef Coat Buttons -->
  <circle cx="90" cy="155" r="3" fill="#333"/>
  <circle cx="90" cy="165" r="3" fill="#333"/>
  <circle cx="90" cy="175" r="3" fill="#333"/>
  <circle cx="110" cy="155" r="3" fill="#333"/>
  <circle cx="110" cy="165" r="3" fill="#333"/>
  <circle cx="110" cy="175" r="3" fill="#333"/>
  
  <!-- Text -->
  <text x="100" y="195" text-anchor="middle" font-family="Arial" font-size="14" font-weight="bold">Chef</text>
</svg>
